<svg id="Layer_1" data-name="Layer 1" xmlns="http://www.w3.org/2000/svg" viewBox="0 0 54.59 54.59"><defs><style>.cls-1{fill:#fff;fill-rule:evenodd;}</style></defs><title>Untitled-1</title><path class="cls-1" d="M99.61,72.3a27.29,27.29,0,1,0,27.29,27.29A27.32,27.32,0,0,0,99.61,72.3Zm7.57,16.19a.41.41,0,0,1-.41.41h-3.28A1.46,1.46,0,0,0,102,90.36v3.44h4.67a.41.41,0,0,1,.41.45l-.41,4.84a.41.41,0,0,1-.41.38H102v16.08a.41.41,0,0,1-.41.41H95.74a.41.41,0,0,1-.41-.41V99.46H92.4A.41.41,0,0,1,92,99V94.21a.41.41,0,0,1,.41-.41h2.94V89.12a5.89,5.89,0,0,1,5.89-5.89h5.55a.41.41,0,0,1,.41.41Z" transform="translate(-72.32 -72.3)"/></svg>