<svg id="Layer_1" data-name="Layer 1" xmlns="http://www.w3.org/2000/svg" viewBox="0 0 35.83 35.83"><defs><style>.cls-1{fill:#fff;}</style></defs><title>ig</title><path class="cls-1" d="M109.18,88.5a2.11,2.11,0,1,0,2.11,2.11A2.11,2.11,0,0,0,109.18,88.5Zm-9.36,2.7a8.85,8.85,0,1,0,8.85,8.85A8.86,8.86,0,0,0,99.82,91.2Zm0,14.52a5.67,5.67,0,1,1,5.67-5.67A5.67,5.67,0,0,1,99.82,105.72Zm17.85-13a10.79,10.79,0,0,0-10.79-10.79H92.63A10.79,10.79,0,0,0,81.84,92.7v14.24a10.79,10.79,0,0,0,10.79,10.79h14.24a10.79,10.79,0,0,0,10.79-10.79Zm-3.38,14.24a7.41,7.41,0,0,1-7.41,7.41H92.63a7.41,7.41,0,0,1-7.41-7.41V92.7a7.41,7.41,0,0,1,7.41-7.41h14.24a7.41,7.41,0,0,1,7.41,7.41Z" transform="translate(-81.84 -81.91)"/></svg>