<svg id="Layer_1" data-name="Layer 1" xmlns="http://www.w3.org/2000/svg" viewBox="0 0 33.4 27.51"><defs><style>.cls-1,.cls-2{fill:#fff;}.cls-2{fill-rule:evenodd;}</style></defs><title>tt</title><path class="cls-1" d="M104.3,89.07a13.74,13.74,0,0,1-3.37,1c.54-.09,1.34-1.08,1.66-1.47a6.2,6.2,0,0,0,1.12-2c0-.06.05-.13,0-.18a.19.19,0,0,0-.18,0,17.24,17.24,0,0,1-4,1.53.27.27,0,0,1-.28-.07,3.24,3.24,0,0,0-.35-.36A7.09,7.09,0,0,0,97,86.26a6.76,6.76,0,0,0-3-.48,7.12,7.12,0,0,0-2.82.8,7.28,7.28,0,0,0-2.28,1.86,7,7,0,0,0-1.36,2.73A7.38,7.38,0,0,0,87.45,94c0,.16,0,.18-.14.16-5.5-.82-10.07-2.79-13.77-7-.16-.18-.25-.18-.38,0-1.62,2.43-.83,6.33,1.19,8.25.27.26.55.51.85.74a7,7,0,0,1-2.66-.74c-.16-.1-.24,0-.26.14a4.2,4.2,0,0,0,0,.79A7.06,7.06,0,0,0,76.68,102a4.12,4.12,0,0,0,.88.27,7.87,7.87,0,0,1-2.61.08c-.19,0-.26.06-.19.24,1.15,3.13,3.62,4.06,5.48,4.58.25,0,.5,0,.75.1l0,0c-.61.94-2.75,1.63-3.74,2a13.39,13.39,0,0,1-5.68.73c-.31,0-.37,0-.45,0s0,.12.09.2c.39.26.78.48,1.18.7a18.76,18.76,0,0,0,3.8,1.52c6.82,1.88,14.51.5,19.63-4.59,4-4,5.43-9.51,5.43-15,0-.22.26-.34.41-.45a13.22,13.22,0,0,0,2.66-2.78.81.81,0,0,0,.16-.53v0C104.43,89,104.44,89,104.3,89.07Z" transform="translate(-71.03 -85.77)"/><path class="cls-2" d="M81,113.16Z" transform="translate(-71.03 -85.77)"/><path class="cls-2" d="M81,113.16Z" transform="translate(-71.03 -85.77)"/><path class="cls-2" d="M82.08,113.19c0-.06.59,0,0,0C82.08,113.16,82.15,113.19,82.08,113.19Z" transform="translate(-71.03 -85.77)"/><path class="cls-2" d="M93.89,85.81a.12.12,0,0,1-.14,0Z" transform="translate(-71.03 -85.77)"/></svg>